<svg version="1.1" id="Layer_1" xmlns="http://www.w3.org/2000/svg" xmlns:xlink="http://www.w3.org/1999/xlink" x="0px" y="0px"
	 width="100%" viewBox="0 0 500 500" enable-background="new 0 0 500 500" xml:space="preserve">
<path fill="#FFFFFF" opacity="1.000000" stroke="none" 
	d="
M236.000000,501.000000 
	C157.333359,501.000000 79.166702,501.000000 1.000042,501.000000 
	C1.000028,334.333405 1.000028,167.666779 1.000014,1.000131 
	C167.666565,1.000088 334.333130,1.000088 500.999756,1.000044 
	C500.999847,167.666519 500.999847,334.333038 500.999939,500.999786 
	C412.833344,501.000000 324.666656,501.000000 236.000000,501.000000 
M217.079391,214.849380 
	C221.098969,218.717773 225.118546,222.586151 229.138107,226.454544 
	C229.575821,226.044464 230.013519,225.634369 230.451218,225.224289 
	C227.088928,220.759506 223.726639,216.294724 220.244492,211.159241 
	C219.229767,206.758362 218.215042,202.357498 217.247620,197.107635 
	C216.940552,187.339127 220.914871,178.991653 226.473846,170.613663 
	C229.348175,167.089325 232.222504,163.564987 235.675842,159.724304 
	C238.907257,156.390991 242.138672,153.057693 245.953262,149.328278 
	C247.671616,147.727524 249.389984,146.126770 251.065567,144.565872 
	C252.986740,146.225616 254.563278,147.587616 256.394226,149.554489 
	C260.573151,153.711838 264.752106,157.869202 269.174744,162.659164 
	C272.393829,166.795639 275.612946,170.932114 279.055695,175.756271 
	C280.791687,180.159241 282.527679,184.562210 284.189240,189.784241 
	C283.990173,195.153687 283.791138,200.523117 283.196167,206.428680 
	C280.509918,214.724838 275.803436,221.565994 268.981995,227.020187 
	C278.857971,222.953354 286.020752,216.035599 290.848206,205.638412 
	C292.251282,200.099899 293.654358,194.561371 295.450500,188.347137 
	C294.953186,183.567215 294.455872,178.787308 293.978394,173.240479 
	C292.001709,168.823074 290.025055,164.405670 287.919952,159.299255 
	C284.587463,154.915344 281.255005,150.531418 277.658508,145.528091 
	C268.550293,136.945633 259.442078,128.363159 249.273605,118.781662 
	C245.830475,122.608948 241.752792,127.190506 237.620316,131.722076 
	C233.045929,136.738190 228.421341,141.708496 223.242371,147.061569 
	C220.420868,151.021103 217.599380,154.980652 214.223969,159.311203 
	C212.500351,163.213791 210.776749,167.116394 208.600586,171.611145 
	C205.788956,180.780289 205.686874,189.906342 209.022614,199.734314 
	C211.635651,204.565262 214.248703,209.396194 217.079391,214.849380 
M261.623749,346.759094 
	C268.763092,339.880554 275.902405,333.002014 283.752502,325.979706 
	C287.819031,324.104034 291.806183,322.025208 295.970245,320.399292 
	C302.603333,317.809296 309.354248,315.520996 316.852142,313.168945 
	C325.252045,310.150604 333.651917,307.132263 342.803314,304.063538 
	C348.056000,300.758057 353.308685,297.452576 359.158813,293.934509 
	C361.442719,290.962738 363.726593,287.990967 366.549316,284.587524 
	C368.073242,280.788757 369.597168,276.990021 371.614716,272.628998 
	C372.360199,269.087372 373.105682,265.545746 374.053406,261.193207 
	C374.464508,256.565125 374.875580,251.937042 375.286682,247.308960 
	C374.799713,247.063171 374.312744,246.817383 373.825775,246.571594 
	C367.533875,251.013031 361.241974,255.454468 354.244629,260.039948 
	C346.490173,263.674896 338.735718,267.309845 330.235504,271.007660 
	C322.476715,274.626862 314.717926,278.246094 306.252502,281.991577 
	C300.759064,285.507385 295.265594,289.023224 289.148682,292.841858 
	C286.013947,295.722656 282.879211,298.603424 279.150146,301.831573 
	C276.753052,305.217072 274.355957,308.602570 271.433533,312.430756 
	C269.911377,316.274689 268.389221,320.118622 266.388428,324.496918 
	C264.607880,332.009979 262.827362,339.523010 260.715363,347.056824 
	C260.805786,347.027344 260.896179,346.997833 261.623749,346.759094 
M238.871628,278.233826 
	C237.560211,274.492859 236.248795,270.751862 234.902954,266.290344 
	C232.821075,262.531738 230.739197,258.773163 228.449097,254.410599 
	C224.333008,250.201050 220.216919,245.991516 215.761887,241.220001 
	C210.185806,237.138138 204.609726,233.056259 198.714752,228.392639 
	C190.442032,221.517105 184.442032,213.094437 181.277176,202.550568 
	C179.093643,212.060730 176.917007,221.367859 179.175888,231.764572 
	C180.783951,235.843246 182.392014,239.921936 184.157440,244.670197 
	C188.091599,249.141479 192.025757,253.612778 196.221634,258.699219 
	C200.758377,262.160522 205.295120,265.621826 210.196045,269.653900 
	C214.839569,273.088226 219.483093,276.522522 224.443466,280.528046 
	C230.633881,285.900360 236.824310,291.272705 242.170944,295.912750 
	C241.303116,291.531311 240.062286,285.266815 238.871628,278.233826 
M148.970230,346.291779 
	C143.986832,343.179779 139.003448,340.067810 133.629318,336.405304 
	C130.023026,334.334625 126.471664,332.160553 122.801674,330.209717 
	C95.082687,315.475403 69.054901,318.267517 44.690880,337.864990 
	C43.373520,338.924622 42.112507,340.054321 40.535725,341.398163 
	C45.351665,344.636017 48.585930,342.064819 51.724476,340.075989 
	C63.885090,332.370209 77.131561,330.018250 90.969933,333.208588 
	C98.802940,335.014435 106.242294,338.527679 114.300583,341.776123 
	C118.715210,344.247131 123.129837,346.718140 127.987473,349.730042 
	C132.914948,352.849487 137.842438,355.968964 143.149368,359.672424 
	C152.595016,365.161682 161.869202,370.977478 171.532944,376.051361 
	C181.865326,381.476349 193.066940,383.804077 204.799545,383.002411 
	C221.803665,381.840607 235.552948,373.763763 247.966461,362.454620 
	C246.063049,361.849091 244.106110,361.382599 242.506485,361.940552 
	C238.446228,363.356720 234.455673,365.049286 230.598892,366.957825 
	C219.359055,372.519897 207.481354,374.135162 195.753311,370.121429 
	C184.844925,366.388245 174.536911,360.900787 163.477707,355.707520 
	C158.781189,352.755920 154.084671,349.804321 148.970230,346.291779 
M280.785461,278.011414 
	C285.897705,274.090332 291.009979,270.169250 296.777985,266.029327 
	C301.268280,262.057709 305.758575,258.086060 310.807190,253.778763 
	C313.480560,250.185867 316.153931,246.592957 319.276489,242.429733 
	C322.848389,235.728958 324.133057,228.559692 323.807648,220.157959 
	C323.077576,214.321503 322.347534,208.485062 321.545563,202.073425 
	C318.047577,208.723679 315.070587,214.383484 311.539520,220.415787 
	C309.083435,222.847504 306.798798,225.488815 304.135712,227.667511 
	C298.532562,232.251480 292.730865,236.592758 286.380463,241.260315 
	C282.904236,244.811371 279.428040,248.362427 275.368927,252.259064 
	C272.939484,256.511505 270.510040,260.763977 267.611755,265.543762 
	C266.450165,269.038239 265.288574,272.532684 263.716064,276.647369 
	C262.370880,283.716248 261.025726,290.785156 260.178009,295.239777 
	C266.089355,290.202667 273.111542,284.218994 280.785461,278.011414 
M375.679657,348.805817 
	C383.139465,344.574982 390.599243,340.344147 398.882446,336.108887 
	C400.806946,335.658234 402.764832,335.316345 404.650330,334.738464 
	C413.853119,331.917786 423.300354,330.532196 432.613281,333.141754 
	C439.364288,335.033478 445.712280,338.391357 452.195679,341.197784 
	C455.126770,342.466522 457.947235,344.510559 461.107544,341.469177 
	C434.971771,316.872009 404.115845,314.282349 372.911438,333.909027 
	C367.249573,337.538147 361.587738,341.167267 355.248840,344.981384 
	C350.174011,348.357422 345.099182,351.733459 339.344757,355.246002 
	C333.070740,358.662445 326.946686,362.398712 320.490295,365.426086 
	C308.506042,371.045380 295.850769,374.190735 282.727417,370.835754 
	C275.565857,369.004883 268.911285,365.252045 261.923065,362.647736 
	C259.577484,361.773590 256.907318,361.770264 254.385529,361.368927 
	C254.241074,361.900787 254.096603,362.432617 253.952148,362.964478 
	C255.426086,364.227203 256.848083,365.557129 258.381836,366.742432 
	C277.591827,381.588226 298.576202,387.823517 322.363251,379.507751 
	C335.753418,374.826691 347.871155,367.764191 359.708374,359.090729 
	C364.802307,355.665649 369.896240,352.240570 375.679657,348.805817 
M233.104507,217.781036 
	C243.676834,230.899384 261.120636,230.149765 270.679993,215.743668 
	C271.577972,212.144119 272.475952,208.544586 273.614746,204.199005 
	C272.370880,191.998840 265.802002,184.398773 254.719223,182.337219 
	C245.396500,180.603058 235.695312,185.790451 230.618607,195.638092 
	C227.434921,203.227570 227.831268,210.436188 233.104507,217.781036 
M234.973206,322.258423 
	C232.984863,318.168732 230.996521,314.079010 228.877441,309.314880 
	C225.920319,305.873322 222.963196,302.431793 219.730331,298.379425 
	C214.240280,294.396851 208.750214,290.414276 202.789520,285.992432 
	C194.854736,282.011078 186.919952,278.029694 178.472549,273.566681 
	C170.441910,270.315369 162.411255,267.064087 153.913574,263.282532 
	C145.172623,257.766968 136.431686,252.251419 127.690735,246.735855 
	C127.272026,246.984879 126.853317,247.233887 126.434608,247.482910 
	C127.283470,253.323898 128.132339,259.164886 128.948837,265.826874 
	C130.240845,269.977539 131.532852,274.128235 132.910889,278.990631 
	C135.202103,282.692261 137.493301,286.393921 140.070267,290.713470 
	C145.691925,294.853973 151.313568,298.994446 157.389404,303.664642 
	C167.598053,307.088989 177.806702,310.513336 188.596268,314.378937 
	C198.328079,318.049622 208.059891,321.720276 218.225540,325.878235 
	C226.156418,332.784485 234.087296,339.690765 241.936768,346.526123 
	C239.724060,339.046539 237.351425,331.026398 234.973206,322.258423 
M232.465958,226.803696 
	C232.483154,226.582367 232.500336,226.361053 232.506165,226.285995 
	C232.470169,226.434250 232.399338,226.726028 232.465958,226.803696 
z"/>
<path fill="#1FC3E9" opacity="1.000000" stroke="none" 
	d="
M358.995392,358.983154 
	C347.871155,367.764191 335.753418,374.826691 322.363251,379.507751 
	C298.576202,387.823517 277.591827,381.588226 258.381836,366.742432 
	C256.848083,365.557129 255.426086,364.227203 253.952148,362.964478 
	C254.096603,362.432617 254.241074,361.900787 254.385529,361.368927 
	C256.907318,361.770264 259.577484,361.773590 261.923065,362.647736 
	C268.911285,365.252045 275.565857,369.004883 282.727417,370.835754 
	C295.850769,374.190735 308.506042,371.045380 320.490295,365.426086 
	C326.946686,362.398712 333.070740,358.662445 339.778442,355.565765 
	C345.026947,356.256622 349.857117,356.500183 354.647705,357.073853 
	C356.151550,357.253967 357.549164,358.321716 358.995392,358.983154 
z"/>
<path fill="#1FC3E9" opacity="1.000000" stroke="none" 
	d="
M163.964600,356.185638 
	C174.536911,360.900787 184.844925,366.388245 195.753311,370.121429 
	C207.481354,374.135162 219.359055,372.519897 230.598892,366.957825 
	C234.455673,365.049286 238.446228,363.356720 242.506485,361.940552 
	C244.106110,361.382599 246.063049,361.849091 247.966461,362.454620 
	C235.552948,373.763763 221.803665,381.840607 204.799545,383.002411 
	C193.066940,383.804077 181.865326,381.476349 171.532944,376.051361 
	C161.869202,370.977478 152.595016,365.161682 143.391174,359.312134 
	C148.910400,358.634155 154.198624,358.429962 159.458511,357.928375 
	C161.001907,357.781219 162.464798,356.790009 163.964600,356.185638 
z"/>
<path fill="#3BADE6" opacity="1.000000" stroke="none" 
	d="
M113.858955,341.271912 
	C106.242294,338.527679 98.802940,335.014435 90.969933,333.208588 
	C77.131561,330.018250 63.885090,332.370209 51.724476,340.075989 
	C48.585930,342.064819 45.351665,344.636017 40.535725,341.398163 
	C42.112507,340.054321 43.373520,338.924622 44.690880,337.864990 
	C69.054901,318.267517 95.082687,315.475403 122.801674,330.209717 
	C126.471664,332.160553 130.023026,334.334625 133.630157,337.030640 
	C129.448959,338.103180 125.238724,338.379333 121.095474,339.062012 
	C118.628883,339.468384 116.267586,340.513794 113.858955,341.271912 
z"/>
<path fill="#5993E2" opacity="1.000000" stroke="none" 
	d="
M203.260162,286.431702 
	C208.750214,290.414276 214.240280,294.396851 219.628662,298.989075 
	C217.313812,300.065735 215.103378,300.922119 212.887039,300.937622 
	C196.493607,301.052490 180.098129,300.918121 163.705780,301.094818 
	C161.441864,301.119232 159.191727,302.423279 156.935211,303.134949 
	C151.313568,298.994446 145.691925,294.853973 140.328613,290.232971 
	C142.197601,289.501678 143.804245,289.063202 145.419510,289.028870 
	C163.250488,288.649536 181.083649,288.367615 198.913208,287.935089 
	C200.373489,287.899658 201.811707,286.954285 203.260162,286.431702 
z"/>
<path fill="#E42AD2" opacity="1.000000" stroke="none" 
	d="
M256.139801,148.949615 
	C254.563278,147.587616 252.986740,146.225616 251.065567,144.565872 
	C249.389984,146.126770 247.671616,147.727524 245.409760,149.118607 
	C240.168716,148.606567 235.462875,148.394577 230.777161,147.963654 
	C228.438644,147.748566 226.136948,147.133087 223.818604,146.698730 
	C228.421341,141.708496 233.045929,136.738190 237.620316,131.722076 
	C241.752792,127.190506 245.830475,122.608948 249.273605,118.781662 
	C259.442078,128.363159 268.550293,136.945633 277.592590,146.168945 
	C275.657227,147.206940 273.804443,147.808029 271.915222,147.962219 
	C266.664856,148.390747 261.399323,148.633484 256.139801,148.949615 
z"/>
<path fill="#3BADE6" opacity="1.000000" stroke="none" 
	d="
M373.575989,333.790283 
	C404.115845,314.282349 434.971771,316.872009 461.107544,341.469177 
	C457.947235,344.510559 455.126770,342.466522 452.195679,341.197784 
	C445.712280,338.391357 439.364288,335.033478 432.613281,333.141754 
	C423.300354,330.532196 413.853119,331.917786 404.650330,334.738464 
	C402.764832,335.316345 400.806946,335.658234 398.185944,335.794556 
	C395.545227,335.319763 393.602570,335.136719 391.656525,335.002960 
	C385.630341,334.588654 379.602936,334.193115 373.575989,333.790283 
z"/>
<path fill="#658AE1" opacity="1.000000" stroke="none" 
	d="
M203.024841,286.212067 
	C201.811707,286.954285 200.373489,287.899658 198.913208,287.935089 
	C181.083649,288.367615 163.250488,288.649536 145.419510,289.028870 
	C143.804245,289.063202 142.197601,289.501678 140.185730,289.924011 
	C137.493301,286.393921 135.202103,282.692261 133.148087,278.294434 
	C134.170868,277.401794 134.952057,277.054382 135.742676,277.031433 
	C148.433594,276.663177 161.128372,276.405518 173.814484,275.919495 
	C175.559372,275.852631 177.262634,274.698883 178.985168,274.048309 
	C186.919952,278.029694 194.854736,282.011078 203.024841,286.212067 
z"/>
<path fill="#5D90E1" opacity="1.000000" stroke="none" 
	d="
M289.772125,292.539032 
	C295.265594,289.023224 300.759064,285.507385 306.696411,282.336365 
	C308.283386,283.120300 309.413940,283.895081 310.571716,283.938110 
	C314.725098,284.092560 318.890106,284.090607 323.046387,283.982086 
	C333.652222,283.705261 344.255280,283.139496 354.860382,283.116974 
	C358.575714,283.109070 362.293701,284.349060 366.010498,285.019226 
	C363.726593,287.990967 361.442719,290.962738 358.345459,294.000977 
	C336.756195,294.044952 315.980072,294.058594 295.204712,293.936829 
	C293.391205,293.926208 291.582855,293.026001 289.772125,292.539032 
z"/>
<path fill="#4F9BE3" opacity="1.000000" stroke="none" 
	d="
M157.162308,303.399780 
	C159.191727,302.423279 161.441864,301.119232 163.705780,301.094818 
	C180.098129,300.918121 196.493607,301.052490 212.887039,300.937622 
	C215.103378,300.922119 217.313812,300.065735 219.766510,299.294495 
	C222.963196,302.431793 225.920319,305.873322 228.703125,309.956421 
	C226.471909,311.065277 224.420288,311.907166 222.357193,311.936340 
	C212.379730,312.077454 202.397873,311.920807 192.421158,312.086517 
	C190.942719,312.111053 189.483475,313.291809 188.015350,313.937653 
	C177.806702,310.513336 167.598053,307.088989 157.162308,303.399780 
z"/>
<path fill="#5597E2" opacity="1.000000" stroke="none" 
	d="
M289.460388,292.690430 
	C291.582855,293.026001 293.391205,293.926208 295.204712,293.936829 
	C315.980072,294.058594 336.756195,294.044952 358.046753,294.107300 
	C353.308685,297.452576 348.056000,300.758057 342.235352,303.731232 
	C340.164307,302.932648 338.650391,302.040222 337.160187,302.078156 
	C332.230072,302.203796 327.311066,302.899231 322.383240,302.952026 
	C309.634186,303.088684 296.882294,303.047668 284.132812,302.932617 
	C282.665771,302.919403 281.207062,301.989258 279.744476,301.484222 
	C282.879211,298.603424 286.013947,295.722656 289.460388,292.690430 
z"/>
<path fill="#658AE1" opacity="1.000000" stroke="none" 
	d="
M366.279907,284.803375 
	C362.293701,284.349060 358.575714,283.109070 354.860382,283.116974 
	C344.255280,283.139496 333.652222,283.705261 323.046387,283.982086 
	C318.890106,284.090607 314.725098,284.092560 310.571716,283.938110 
	C309.413940,283.895081 308.283386,283.120300 307.049744,282.273254 
	C314.717926,278.246094 322.476715,274.626862 330.699219,271.377563 
	C331.812256,272.155670 332.468506,272.929474 333.109924,272.917358 
	C343.449036,272.722534 353.785248,272.355194 364.124664,272.211060 
	C366.451813,272.178650 368.788727,272.846039 371.121124,273.191284 
	C369.597168,276.990021 368.073242,280.788757 366.279907,284.803375 
z"/>
<path fill="#4F9BE3" opacity="1.000000" stroke="none" 
	d="
M279.447327,301.657898 
	C281.207062,301.989258 282.665771,302.919403 284.132812,302.932617 
	C296.882294,303.047668 309.634186,303.088684 322.383240,302.952026 
	C327.311066,302.899231 332.230072,302.203796 337.160187,302.078156 
	C338.650391,302.040222 340.164307,302.932648 341.859589,303.756409 
	C333.651917,307.132263 325.252045,310.150604 316.167358,312.821136 
	C313.694214,312.315125 311.906250,312.025848 310.117340,312.019775 
	C297.397949,311.976776 284.678375,311.991669 271.958862,311.988098 
	C274.355957,308.602570 276.753052,305.217072 279.447327,301.657898 
z"/>
<path fill="#8E6CDC" opacity="1.000000" stroke="none" 
	d="
M323.659851,221.030334 
	C324.133057,228.559692 322.848389,235.728958 318.597504,242.714905 
	C309.053253,242.999954 300.186249,243.087906 291.324463,242.911575 
	C289.874634,242.882736 288.447998,241.688980 287.010620,241.033630 
	C292.730865,236.592758 298.532562,232.251480 304.135712,227.667511 
	C306.798798,225.488815 309.083435,222.847504 312.217712,220.273712 
	C316.483887,220.431198 320.071869,220.730774 323.659851,221.030334 
z"/>
<path fill="#7084E0" opacity="1.000000" stroke="none" 
	d="
M178.728851,273.807495 
	C177.262634,274.698883 175.559372,275.852631 173.814484,275.919495 
	C161.128372,276.405518 148.433594,276.663177 135.742676,277.031433 
	C134.952057,277.054382 134.170868,277.401794 133.105072,277.938568 
	C131.532852,274.128235 130.240845,269.977539 129.435089,265.414703 
	C132.718887,265.002106 135.523682,265.130524 138.312408,264.973633 
	C143.673279,264.672089 149.025070,264.208893 154.380615,263.812744 
	C162.411255,267.064087 170.441910,270.315369 178.728851,273.807495 
z"/>
<path fill="#8375DD" opacity="1.000000" stroke="none" 
	d="
M195.959900,258.084076 
	C192.025757,253.612778 188.091599,249.141479 184.547394,244.335266 
	C193.500031,244.000000 202.066101,244.126648 210.622711,243.898621 
	C212.466232,243.849503 214.275681,242.521103 216.100830,241.781982 
	C220.216919,245.991516 224.333008,250.201050 228.166458,254.781464 
	C225.934128,255.434494 223.987488,255.932205 222.034180,255.959961 
	C215.050491,256.059235 208.060120,255.864746 201.082596,256.094543 
	C199.355072,256.151459 197.666412,257.389160 195.959900,258.084076 
z"/>
<path fill="#B95FDB" opacity="1.000000" stroke="none" 
	d="
M231.020142,195.009506 
	C235.695312,185.790451 245.396500,180.603058 254.719223,182.337219 
	C265.802002,184.398773 272.370880,191.998840 273.260742,204.589188 
	C272.590698,204.999588 272.274323,205.006485 271.893250,204.658432 
	C270.013214,202.943558 268.197601,201.570358 266.381958,200.197144 
	C265.428101,202.085785 264.474243,203.974442 263.206451,205.880096 
	C261.432678,205.927887 259.972839,205.958679 258.424988,205.589447 
	C258.429962,200.749527 256.467621,197.741547 251.946243,197.243011 
	C247.151581,196.714355 244.659973,199.525299 243.361740,203.969604 
	C241.996796,201.665268 240.998535,199.372482 240.360291,196.976013 
	C242.025391,195.063843 243.330490,193.255356 244.701660,191.355316 
	C238.331223,188.096130 237.430969,188.332062 235.392883,193.042648 
	C233.720306,193.731400 232.370224,194.370453 231.020142,195.009506 
M259.068451,194.188492 
	C260.988159,195.388062 262.907867,196.587646 264.827576,197.787216 
	C265.375916,197.341965 265.924286,196.896729 266.472656,196.451477 
	C266.186218,194.348694 266.318756,192.035614 265.418060,190.241135 
	C265.028839,189.465683 262.280365,189.219620 261.022217,189.741791 
	C260.011688,190.161179 259.632141,192.100983 259.068451,194.188492 
M254.813736,190.558121 
	C257.188080,187.245682 254.214493,185.716263 252.274567,184.520828 
	C251.514328,184.052383 249.096649,185.449295 248.044586,186.570023 
	C247.348969,187.311020 247.158432,189.529800 247.755875,190.290421 
	C249.460327,192.460434 251.795654,192.948563 254.813736,190.558121 
z"/>
<path fill="#46A4E5" opacity="1.000000" stroke="none" 
	d="
M271.696198,312.209412 
	C284.678375,311.991669 297.397949,311.976776 310.117340,312.019775 
	C311.906250,312.025848 313.694214,312.315125 315.768982,312.789246 
	C309.354248,315.520996 302.603333,317.809296 295.970245,320.399292 
	C291.806183,322.025208 287.819031,324.104034 283.305908,325.645569 
	C281.422913,324.873962 280.001312,324.128418 278.547211,324.058472 
	C274.661285,323.871521 270.761383,323.974701 266.867035,323.962555 
	C268.389221,320.118622 269.911377,316.274689 271.696198,312.209412 
z"/>
<path fill="#8E6CDC" opacity="1.000000" stroke="none" 
	d="
M215.931366,241.500977 
	C214.275681,242.521103 212.466232,243.849503 210.622711,243.898621 
	C202.066101,244.126648 193.500031,244.000000 184.468719,244.000458 
	C182.392014,239.921936 180.783951,235.843246 179.599060,231.314026 
	C182.785706,230.573029 185.547806,230.268860 188.312958,229.995468 
	C191.885254,229.642258 195.459976,229.313614 199.033661,228.974380 
	C204.609726,233.056259 210.185806,237.138138 215.931366,241.500977 
z"/>
<path fill="#7A7BDE" opacity="1.000000" stroke="none" 
	d="
M268.080597,265.016418 
	C270.510040,260.763977 272.939484,256.511505 275.948425,252.398438 
	C285.208557,252.692078 293.891510,252.773544 302.568481,253.045471 
	C305.137268,253.125961 307.689178,253.743149 310.248840,254.114426 
	C305.758575,258.086060 301.268280,262.057709 296.258118,265.769318 
	C294.089050,265.006226 292.430115,264.043854 290.792389,264.078644 
	C283.218567,264.239594 275.650635,264.677643 268.080597,265.016418 
z"/>
<path fill="#46A4E5" opacity="1.000000" stroke="none" 
	d="
M188.305817,314.158295 
	C189.483475,313.291809 190.942719,312.111053 192.421158,312.086517 
	C202.397873,311.920807 212.379730,312.077454 222.357193,311.936340 
	C224.420288,311.907166 226.471909,311.065277 228.768494,310.293640 
	C230.996521,314.079010 232.984863,318.168732 234.512451,322.630249 
	C228.619370,323.714478 222.705521,321.149414 217.791702,325.390930 
	C208.059891,321.720276 198.328079,318.049622 188.305817,314.158295 
z"/>
<path fill="#B270DE" opacity="1.000000" stroke="none" 
	d="
M230.819366,195.323792 
	C232.370224,194.370453 233.720306,193.731400 235.495499,193.416565 
	C237.280487,194.853729 238.640381,195.966705 240.000275,197.079681 
	C240.998535,199.372482 241.996796,201.665268 243.445114,204.351730 
	C244.102173,208.715637 246.220047,211.232773 250.050110,211.875900 
	C254.595490,212.639130 256.960022,209.782425 258.512970,205.989471 
	C259.972839,205.958679 261.432678,205.927887 263.433289,206.092773 
	C267.162750,209.955444 268.076965,209.807907 271.957672,205.000092 
	C272.274323,205.006485 272.590698,204.999588 273.140320,204.962219 
	C272.475952,208.544586 271.577972,212.144119 270.177063,215.666107 
	C268.716339,215.403671 267.758514,215.218796 266.570435,214.767517 
	C265.178101,213.726318 263.380127,212.042999 262.964111,212.334167 
	C261.173645,213.587280 259.788879,215.420059 257.893982,217.148376 
	C256.574402,217.545731 255.617157,217.836456 254.319489,218.064148 
	C252.447296,217.717667 250.915512,217.434235 249.021423,216.999603 
	C246.990952,216.253082 245.322769,215.657715 243.439453,214.796326 
	C239.121918,210.774155 237.492203,211.097336 235.393158,216.021027 
	C234.346085,216.398193 233.626434,216.772598 232.906799,217.147003 
	C227.831268,210.436188 227.434921,203.227570 230.819366,195.323792 
M239.003479,204.559494 
	C238.143753,203.026962 237.284027,201.494446 235.745300,198.751587 
	C233.770569,201.252777 231.776978,202.863831 231.234695,204.867645 
	C230.980713,205.806061 233.395569,208.356750 234.848282,208.582138 
	C235.986572,208.758759 237.505524,206.481781 239.003479,204.559494 
z"/>
<path fill="#7A7BDE" opacity="1.000000" stroke="none" 
	d="
M196.090759,258.391663 
	C197.666412,257.389160 199.355072,256.151459 201.082596,256.094543 
	C208.060120,255.864746 215.050491,256.059235 222.034180,255.959961 
	C223.987488,255.932205 225.934128,255.434494 228.270569,255.083466 
	C230.739197,258.773163 232.821075,262.531738 234.495850,266.648193 
	C229.050598,267.336578 224.007874,267.610596 218.976013,268.018616 
	C215.919281,268.266449 212.879349,268.721283 209.831863,269.083130 
	C205.295120,265.621826 200.758377,262.160522 196.090759,258.391663 
z"/>
<path fill="#7084E0" opacity="1.000000" stroke="none" 
	d="
M371.367920,272.910156 
	C368.788727,272.846039 366.451813,272.178650 364.124664,272.211060 
	C353.785248,272.355194 343.449036,272.722534 333.109924,272.917358 
	C332.468506,272.929474 331.812256,272.155670 331.072083,271.346130 
	C338.735718,267.309845 346.490173,263.674896 354.789856,260.323944 
	C356.985382,261.072357 358.621887,261.868256 360.288544,261.937347 
	C364.802582,262.124542 369.329376,262.003143 373.851135,262.004120 
	C373.105682,265.545746 372.360199,269.087372 371.367920,272.910156 
z"/>
<path fill="#8375DD" opacity="1.000000" stroke="none" 
	d="
M310.528015,253.946594 
	C307.689178,253.743149 305.137268,253.125961 302.568481,253.045471 
	C293.891510,252.773544 285.208557,252.692078 276.239868,252.225647 
	C279.428040,248.362427 282.904236,244.811371 286.695557,241.146973 
	C288.447998,241.688980 289.874634,242.882736 291.324463,242.911575 
	C300.186249,243.087906 309.053253,242.999954 318.372894,243.000061 
	C316.153931,246.592957 313.480560,250.185867 310.528015,253.946594 
z"/>
<path fill="#C147D6" opacity="1.000000" stroke="none" 
	d="
M209.035690,198.977539 
	C205.686874,189.906342 205.788956,180.780289 209.290619,171.310455 
	C215.293060,171.001709 220.605469,170.993652 225.917862,170.985611 
	C220.914871,178.991653 216.940552,187.339127 216.792786,197.545227 
	C213.903854,198.314377 211.469772,198.645950 209.035690,198.977539 
z"/>
<path fill="#30B5E7" opacity="1.000000" stroke="none" 
	d="
M373.243713,333.849670 
	C379.602936,334.193115 385.630341,334.588654 391.656525,335.002960 
	C393.602570,335.136719 395.545227,335.319763 397.774231,335.796783 
	C390.599243,340.344147 383.139465,344.574982 375.228424,348.429688 
	C370.028717,347.701843 365.261230,347.502655 360.542358,346.913757 
	C358.940399,346.713806 357.461212,345.530396 355.925903,344.796417 
	C361.587738,341.167267 367.249573,337.538147 373.243713,333.849670 
z"/>
<path fill="#D935D4" opacity="1.000000" stroke="none" 
	d="
M256.267029,149.252045 
	C261.399323,148.633484 266.664856,148.390747 271.915222,147.962219 
	C273.804443,147.808029 275.657227,147.206940 277.724579,146.478653 
	C281.255005,150.531418 284.587463,154.915344 287.565735,159.697815 
	C285.303253,160.397751 283.404297,160.794708 281.484863,160.980942 
	C277.305786,161.386429 273.116272,161.684540 268.931030,162.026550 
	C264.752106,157.869202 260.573151,153.711838 256.267029,149.252045 
z"/>
<path fill="#7084E0" opacity="1.000000" stroke="none" 
	d="
M267.846191,265.280090 
	C275.650635,264.677643 283.218567,264.239594 290.792389,264.078644 
	C292.430115,264.043854 294.089050,265.006226 295.930237,265.878723 
	C291.009979,270.169250 285.897705,274.090332 280.181763,277.788879 
	C274.427704,277.053284 269.277344,276.540222 264.126984,276.027161 
	C265.288574,272.532684 266.450165,269.038239 267.846191,265.280090 
z"/>
<path fill="#A766DC" opacity="1.000000" stroke="none" 
	d="
M198.874207,228.683502 
	C195.459976,229.313614 191.885254,229.642258 188.312958,229.995468 
	C185.547806,230.268860 182.785706,230.573029 179.626190,230.930634 
	C176.917007,221.367859 179.093643,212.060730 181.277176,202.550568 
	C184.442032,213.094437 190.442032,221.517105 198.874207,228.683502 
z"/>
<path fill="#27BBE8" opacity="1.000000" stroke="none" 
	d="
M163.721161,355.946594 
	C162.464798,356.790009 161.001907,357.781219 159.458511,357.928375 
	C154.198624,358.429962 148.910400,358.634155 143.201447,359.020111 
	C137.842438,355.968964 132.914948,352.849487 128.215302,349.371368 
	C131.029144,348.674713 133.608627,348.270935 136.202637,348.013550 
	C140.592972,347.577881 144.992508,347.234741 149.388168,346.852722 
	C154.084671,349.804321 158.781189,352.755920 163.721161,355.946594 
z"/>
<path fill="#7A7BDE" opacity="1.000000" stroke="none" 
	d="
M154.147095,263.547638 
	C149.025070,264.208893 143.673279,264.672089 138.312408,264.973633 
	C135.523682,265.130524 132.718887,265.002106 129.451279,265.004211 
	C128.132339,259.164886 127.283470,253.323898 126.434608,247.482910 
	C126.853317,247.233887 127.272026,246.984879 127.690735,246.735855 
	C136.431686,252.251419 145.172623,257.766968 154.147095,263.547638 
z"/>
<path fill="#27BBE8" opacity="1.000000" stroke="none" 
	d="
M355.587372,344.888916 
	C357.461212,345.530396 358.940399,346.713806 360.542358,346.913757 
	C365.261230,347.502655 370.028717,347.701843 374.883667,348.434509 
	C369.896240,352.240570 364.802307,355.665649 359.351868,359.036926 
	C357.549164,358.321716 356.151550,357.253967 354.647705,357.073853 
	C349.857117,356.500183 345.026947,356.256622 340.118225,355.497498 
	C345.099182,351.733459 350.174011,348.357422 355.587372,344.888916 
z"/>
<path fill="#D935D4" opacity="1.000000" stroke="none" 
	d="
M223.530487,146.880142 
	C226.136948,147.133087 228.438644,147.748566 230.777161,147.963654 
	C235.462875,148.394577 240.168716,148.606567 245.118164,149.316666 
	C242.138672,153.057693 238.907257,156.390991 234.964218,159.822235 
	C227.761032,159.593506 221.269470,159.266846 214.777893,158.940186 
	C217.599380,154.980652 220.420868,151.021103 223.530487,146.880142 
z"/>
<path fill="#7084E0" opacity="1.000000" stroke="none" 
	d="
M210.013947,269.368530 
	C212.879349,268.721283 215.919281,268.266449 218.976013,268.018616 
	C224.007874,267.610596 229.050598,267.336578 234.513062,267.008484 
	C236.248795,270.751862 237.560211,274.492859 238.397339,278.616821 
	C233.324234,279.318817 228.725418,279.637817 224.126617,279.956848 
	C219.483093,276.522522 214.839569,273.088226 210.013947,269.368530 
z"/>
<path fill="#CD3DD5" opacity="1.000000" stroke="none" 
	d="
M269.052887,162.342865 
	C273.116272,161.684540 277.305786,161.386429 281.484863,160.980942 
	C283.404297,160.794708 285.303253,160.397751 287.629944,160.042313 
	C290.025055,164.405670 292.001709,168.823074 293.508575,173.621918 
	C288.303192,174.358414 283.567596,174.713501 278.832031,175.068588 
	C275.612946,170.932114 272.393829,166.795639 269.052887,162.342865 
z"/>
<path fill="#30B5E7" opacity="1.000000" stroke="none" 
	d="
M149.179199,346.572266 
	C144.992508,347.234741 140.592972,347.577881 136.202637,348.013550 
	C133.608627,348.270935 131.029144,348.674713 127.993805,349.100922 
	C123.129837,346.718140 118.715210,344.247131 114.079773,341.524017 
	C116.267586,340.513794 118.628883,339.468384 121.095474,339.062012 
	C125.238724,338.379333 129.448959,338.103180 133.825531,337.305908 
	C139.003448,340.067810 143.986832,343.179779 149.179199,346.572266 
z"/>
<path fill="#CD3DD5" opacity="1.000000" stroke="none" 
	d="
M214.500946,159.125702 
	C221.269470,159.266846 227.761032,159.593506 234.674713,159.980408 
	C232.222504,163.564987 229.348175,167.089325 226.195862,170.799637 
	C220.605469,170.993652 215.293060,171.001709 209.516907,171.014374 
	C210.776749,167.116394 212.500351,163.213791 214.500946,159.125702 
z"/>
<path fill="#3BADE6" opacity="1.000000" stroke="none" 
	d="
M218.008621,325.634583 
	C222.705521,321.149414 228.619370,323.714478 234.515259,323.004150 
	C237.351425,331.026398 239.724060,339.046539 241.936768,346.526123 
	C234.087296,339.690765 226.156418,332.784485 218.008621,325.634583 
z"/>
<path fill="#3BADE6" opacity="1.000000" stroke="none" 
	d="
M266.627747,324.229736 
	C270.761383,323.974701 274.661285,323.871521 278.547211,324.058472 
	C280.001312,324.128418 281.422913,324.873962 282.950531,325.717468 
	C275.902405,333.002014 268.763092,339.880554 261.318176,346.882385 
	C261.012573,347.005707 261.046814,347.036072 261.046814,347.036072 
	C262.827362,339.523010 264.607880,332.009979 266.627747,324.229736 
z"/>
<path fill="#C147D6" opacity="1.000000" stroke="none" 
	d="
M278.943848,175.412430 
	C283.567596,174.713501 288.303192,174.358414 293.498657,174.005371 
	C294.455872,178.787308 294.953186,183.567215 294.795471,188.681641 
	C290.848175,188.999146 287.555939,188.982178 284.263672,188.965195 
	C282.527679,184.562210 280.791687,180.159241 278.943848,175.412430 
z"/>
<path fill="#658AE1" opacity="1.000000" stroke="none" 
	d="
M263.921509,276.337280 
	C269.277344,276.540222 274.427704,277.053284 279.855896,277.900818 
	C273.111542,284.218994 266.089355,290.202667 260.178009,295.239777 
	C261.025726,290.785156 262.370880,283.716248 263.921509,276.337280 
z"/>
<path fill="#A766DC" opacity="1.000000" stroke="none" 
	d="
M254.659912,218.127167 
	C255.617157,217.836456 256.574402,217.545731 257.918579,217.501801 
	C263.072205,221.632370 265.856140,220.742752 266.800690,215.033920 
	C267.758514,215.218796 268.716339,215.403671 269.897980,215.889404 
	C261.120636,230.149765 243.676834,230.899384 233.005646,217.464020 
	C233.626434,216.772598 234.346085,216.398193 235.461426,216.410980 
	C236.293015,220.237854 238.632309,220.281204 241.220139,219.744186 
	C243.891388,219.189835 244.320496,217.391953 243.654602,215.062347 
	C245.322769,215.657715 246.990952,216.253082 248.773788,217.280090 
	C245.930756,219.366135 246.540741,221.659653 248.453171,223.338394 
	C249.499237,224.256638 252.114792,224.805023 253.036545,224.144394 
	C254.820709,222.865646 257.313263,220.955719 254.659912,218.127167 
z"/>
<path fill="#7A7BDE" opacity="1.000000" stroke="none" 
	d="
M373.952271,261.598663 
	C369.329376,262.003143 364.802582,262.124542 360.288544,261.937347 
	C358.621887,261.868256 356.985382,261.072357 355.142578,260.251923 
	C361.241974,255.454468 367.533875,251.013031 373.825775,246.571594 
	C374.312744,246.817383 374.799713,247.063171 375.286682,247.308960 
	C374.875580,251.937042 374.464508,256.565125 373.952271,261.598663 
z"/>
<path fill="#658AE1" opacity="1.000000" stroke="none" 
	d="
M224.285034,280.242432 
	C228.725418,279.637817 233.324234,279.318817 238.372253,279.001038 
	C240.062286,285.266815 241.303116,291.531311 242.170944,295.912750 
	C236.824310,291.272705 230.633881,285.900360 224.285034,280.242432 
z"/>
<path fill="#B95FDB" opacity="1.000000" stroke="none" 
	d="
M284.226440,189.374725 
	C287.555939,188.982178 290.848175,188.999146 294.598938,189.019501 
	C293.654358,194.561371 292.251282,200.099899 290.119476,205.843338 
	C287.457855,205.996368 285.524994,205.944458 283.592102,205.892563 
	C283.791138,200.523117 283.990173,195.153687 284.226440,189.374725 
z"/>
<path fill="#A766DC" opacity="1.000000" stroke="none" 
	d="
M323.733765,220.594147 
	C320.071869,220.730774 316.483887,220.431198 312.494751,220.087463 
	C315.070587,214.383484 318.047577,208.723679 321.545563,202.073425 
	C322.347534,208.485062 323.077576,214.321503 323.733765,220.594147 
z"/>
<path fill="#A766DC" opacity="1.000000" stroke="none" 
	d="
M283.394135,206.160614 
	C285.524994,205.944458 287.457855,205.996368 289.872711,206.085938 
	C286.020752,216.035599 278.857971,222.953354 268.981995,227.020187 
	C275.803436,221.565994 280.509918,214.724838 283.394135,206.160614 
z"/>
<path fill="#B95FDB" opacity="1.000000" stroke="none" 
	d="
M209.029144,199.355927 
	C211.469772,198.645950 213.903854,198.314377 216.769135,197.969711 
	C218.215042,202.357498 219.229767,206.758362 219.930801,211.560944 
	C218.698654,212.717484 217.780197,213.472321 216.861740,214.227142 
	C214.248703,209.396194 211.635651,204.565262 209.029144,199.355927 
z"/>
<path fill="#A766DC" opacity="1.000000" stroke="none" 
	d="
M216.970566,214.538269 
	C217.780197,213.472321 218.698654,212.717484 219.990723,211.896301 
	C223.726639,216.294724 227.088928,220.759506 230.451218,225.224289 
	C230.013519,225.634369 229.575821,226.044464 229.138107,226.454544 
	C225.118546,222.586151 221.098969,218.717773 216.970566,214.538269 
z"/>
<path fill="#A766DC" opacity="1.000000" stroke="none" 
	d="
M232.397232,226.910751 
	C232.399338,226.726028 232.470169,226.434250 232.506165,226.285995 
	C232.500336,226.361053 232.483154,226.582367 232.397232,226.910751 
z"/>
<path fill="#3BADE6" opacity="1.000000" stroke="none" 
	d="
M260.999573,346.987000 
	C260.896179,346.997833 260.805786,347.027344 260.881104,347.046448 
	C261.046814,347.036072 261.012573,347.005707 260.999573,346.987000 
z"/>
<path fill="#FFFFFF" opacity="1.000000" stroke="none" 
	d="
M258.424988,205.589447 
	C256.960022,209.782425 254.595490,212.639130 250.050110,211.875900 
	C246.220047,211.232773 244.102173,208.715637 243.811798,204.363281 
	C244.659973,199.525299 247.151581,196.714355 251.946243,197.243011 
	C256.467621,197.741547 258.429962,200.749527 258.424988,205.589447 
z"/>
<path fill="#FBF5FD" opacity="1.000000" stroke="none" 
	d="
M240.360291,196.976013 
	C238.640381,195.966705 237.280487,194.853729 235.817993,193.366852 
	C237.430969,188.332062 238.331223,188.096130 244.701660,191.355316 
	C243.330490,193.255356 242.025391,195.063843 240.360291,196.976013 
z"/>
<path fill="#FBF5FD" opacity="1.000000" stroke="none" 
	d="
M259.020508,193.777313 
	C259.632141,192.100983 260.011688,190.161179 261.022217,189.741791 
	C262.280365,189.219620 265.028839,189.465683 265.418060,190.241135 
	C266.318756,192.035614 266.186218,194.348694 266.472656,196.451477 
	C265.924286,196.896729 265.375916,197.341965 264.827576,197.787216 
	C262.907867,196.587646 260.988159,195.388062 259.020508,193.777313 
z"/>
<path fill="#FBF5FD" opacity="1.000000" stroke="none" 
	d="
M271.893250,204.658432 
	C268.076965,209.807907 267.162750,209.955444 263.747192,206.075790 
	C264.474243,203.974442 265.428101,202.085785 266.381958,200.197144 
	C268.197601,201.570358 270.013214,202.943558 271.893250,204.658432 
z"/>
<path fill="#FBF5FD" opacity="1.000000" stroke="none" 
	d="
M254.486877,190.754639 
	C251.795654,192.948563 249.460327,192.460434 247.755875,190.290421 
	C247.158432,189.529800 247.348969,187.311020 248.044586,186.570023 
	C249.096649,185.449295 251.514328,184.052383 252.274567,184.520828 
	C254.214493,185.716263 257.188080,187.245682 254.486877,190.754639 
z"/>
<path fill="#FBF5FD" opacity="1.000000" stroke="none" 
	d="
M266.570435,214.767517 
	C265.856140,220.742752 263.072205,221.632370 258.280945,217.395172 
	C259.788879,215.420059 261.173645,213.587280 262.964111,212.334167 
	C263.380127,212.042999 265.178101,213.726318 266.570435,214.767517 
z"/>
<path fill="#FBF5FD" opacity="1.000000" stroke="none" 
	d="
M254.319489,218.064148 
	C257.313263,220.955719 254.820709,222.865646 253.036545,224.144394 
	C252.114792,224.805023 249.499237,224.256638 248.453171,223.338394 
	C246.540741,221.659653 245.930756,219.366135 249.136108,217.431274 
	C250.915512,217.434235 252.447296,217.717667 254.319489,218.064148 
z"/>
<path fill="#FBF5FD" opacity="1.000000" stroke="none" 
	d="
M243.439453,214.796326 
	C244.320496,217.391953 243.891388,219.189835 241.220139,219.744186 
	C238.632309,220.281204 236.293015,220.237854 235.788864,216.408234 
	C237.492203,211.097336 239.121918,210.774155 243.439453,214.796326 
z"/>
<path fill="#FBF5FD" opacity="1.000000" stroke="none" 
	d="
M238.929413,204.927185 
	C237.505524,206.481781 235.986572,208.758759 234.848282,208.582138 
	C233.395569,208.356750 230.980713,205.806061 231.234695,204.867645 
	C231.776978,202.863831 233.770569,201.252777 235.745300,198.751587 
	C237.284027,201.494446 238.143753,203.026962 238.929413,204.927185 
z"/>
</svg>