<?xml version="1.0" standalone="no"?>
<!DOCTYPE svg PUBLIC "-//W3C//DTD SVG 20010904//EN"
 "http://www.w3.org/TR/2001/REC-SVG-20010904/DTD/svg10.dtd">
<svg version="1.0" xmlns="http://www.w3.org/2000/svg"
 width="500.000000pt" height="500.000000pt" viewBox="0 0 500.000000 500.000000"
 preserveAspectRatio="xMidYMid meet">

<g transform="translate(0.000000,500.000000) scale(0.100000,-0.100000)"
fill="#000000" stroke="none">
<path d="M100 4806 c0 -9 16 -17 43 -21 141 -22 204 -116 239 -352 19 -129 19
-2289 0 -2418 -33 -223 -100 -318 -239 -340 -33 -5 -43 -11 -43 -26 0 -18 26
-19 1179 -21 l1179 -3 -222 -630 c-122 -346 -228 -641 -235 -655 -41 -77 -153
-150 -231 -150 -20 0 -30 -5 -30 -15 0 -13 51 -15 395 -15 326 0 395 2 395 14
0 9 -20 15 -66 19 -122 12 -196 71 -225 179 -12 44 -10 51 106 384 65 186 122
345 128 351 6 9 39 13 97 13 98 0 185 -19 356 -80 389 -136 642 -74 804 199
24 40 44 70 46 68 14 -14 326 -923 330 -962 5 -42 2 -56 -18 -85 -29 -42 -61
-59 -128 -67 -33 -4 -50 -11 -50 -19 0 -12 80 -14 470 -14 390 0 470 2 470 14
0 9 -18 15 -54 19 -85 9 -151 51 -201 129 -9 15 -252 699 -540 1520 l-523
1493 -237 0 -237 0 -154 -440 c-85 -242 -170 -471 -189 -510 -108 -217 -363
-448 -620 -560 l-80 -35 -593 0 -593 0 4 1298 c4 1360 4 1374 48 1506 40 118
101 174 207 191 26 4 42 12 42 21 0 12 -78 14 -515 14 -437 0 -515 -2 -515
-14z m3360 -2577 l288 -814 -39 -37 c-50 -46 -114 -68 -198 -68 -79 0 -143 15
-321 74 -191 62 -284 80 -400 73 -58 -3 -117 -13 -152 -25 -32 -12 -58 -18
-58 -14 0 4 129 377 287 830 196 560 291 819 297 810 5 -8 138 -381 296 -829z"/>
</g>
</svg>
